<svg xmlns="http://www.w3.org/2000/svg" version="1.1" xmlns:xlink="http://www.w3.org/1999/xlink" xmlns:svgjs="http://svgjs.dev/svgjs" width="1500" height="333" viewBox="0 0 1500 333"><g transform="matrix(1,0,0,1,-0.9090909090909918,0.7842815157134169)"><svg viewBox="0 0 396 88" data-background-color="#ffffff" preserveAspectRatio="xMidYMid meet" height="333" width="1500" xmlns="http://www.w3.org/2000/svg" xmlns:xlink="http://www.w3.org/1999/xlink"><g id="tight-bounds" transform="matrix(1,0,0,1,0.2400000000000091,-0.20725757772606812)"><svg viewBox="0 0 395.52 88.41451515545211" height="88.41451515545211" width="395.52"><g><svg viewBox="0 0 551.8391956460428 123.35809801481481" height="88.41451515545211" width="395.52"><g transform="matrix(1,0,0,1,156.31919564604274,17.048767525925932)"><svg viewBox="0 0 395.52 89.26056296296295" height="89.26056296296295" width="395.52"><g id="textblocktransform"><svg viewBox="0 0 395.52 89.26056296296295" height="89.26056296296295" width="395.52" id="textblock"><g><svg viewBox="0 0 395.52 89.26056296296295" height="89.26056296296295" width="395.52"><g transform="matrix(1,0,0,1,0,0)"><svg width="395.52" viewBox="2.4 -35.7 202.48 45.7" height="89.26056296296295" data-palette-color="#adffb7"><g class="wordmark-text-0" data-fill-palette-color="primary" id="text-0"><path d="M2.4-7.55L6.95-9.25Q7.25-7.85 8.18-6.65 9.1-5.45 10.7-4.7 12.3-3.95 14.65-3.95L14.65-3.95Q18.15-3.95 19.83-5.58 21.5-7.2 21.5-9.4L21.5-9.4Q21.5-11.2 20.48-12.38 19.45-13.55 17.68-14.38 15.9-15.2 13.6-15.85L13.6-15.85Q11.6-16.45 9.68-17.13 7.75-17.8 6.2-18.82 4.65-19.85 3.75-21.48 2.85-23.1 2.85-25.55L2.85-25.55Q2.85-28.6 4.3-30.8 5.75-33 8.38-34.18 11-35.35 14.45-35.35L14.45-35.35Q17.35-35.35 19.65-34.52 21.95-33.7 23.53-32.18 25.1-30.65 25.85-28.5L25.85-28.5 21.3-26.85Q21-27.95 20.05-28.93 19.1-29.9 17.65-30.5 16.2-31.1 14.4-31.1L14.4-31.1Q12.55-31.15 11.08-30.53 9.6-29.9 8.72-28.75 7.85-27.6 7.85-26L7.85-26Q7.85-24.25 8.85-23.25 9.85-22.25 11.53-21.6 13.2-20.95 15.2-20.35L15.2-20.35Q17.3-19.7 19.3-18.95 21.3-18.2 22.93-17.05 24.55-15.9 25.55-14.18 26.55-12.45 26.55-9.85L26.55-9.85Q26.55-7.05 25.25-4.75 23.95-2.45 21.33-1.05 18.7 0.35 14.75 0.35L14.75 0.35Q11.5 0.35 8.9-0.65 6.3-1.65 4.63-3.43 2.95-5.2 2.4-7.55L2.4-7.55ZM33.25 0L33.25-25 38-25 38 0 33.25 0ZM35.65-29.4L35.65-29.4Q34.3-29.4 33.4-30.3 32.5-31.2 32.5-32.5L32.5-32.5Q32.5-33.85 33.4-34.77 34.3-35.7 35.65-35.7L35.65-35.7Q36.95-35.7 37.87-34.77 38.8-33.85 38.8-32.5L38.8-32.5Q38.8-31.2 37.87-30.3 36.95-29.4 35.65-29.4ZM64.3-21.25L64.65-25 68.95-25 68.95-4.1Q68.95 0.3 66.84 3.45 64.75 6.6 60.82 8.3 56.9 10 51.34 10L51.34 10 50.59 5.85Q57.3 5.7 60.75 3.18 64.2 0.65 64.2-4.1L64.2-4.1 64.2-4.35 64.75-4.3Q63.55-2.4 61.32-1.03 59.09 0.35 55.8 0.35L55.8 0.35Q52.45 0.35 49.87-1.25 47.3-2.85 45.87-5.75 44.45-8.65 44.45-12.5L44.45-12.5Q44.45-16.35 45.87-19.25 47.3-22.15 49.87-23.75 52.45-25.35 55.8-25.35L55.8-25.35Q57.84-25.35 59.47-24.8 61.09-24.25 62.3-23.33 63.5-22.4 64.3-21.25L64.3-21.25ZM49.5-12.5L49.5-12.5Q49.5-8.65 51.52-6.3 53.55-3.95 56.95-3.95L56.95-3.95Q58.95-3.95 60.59-4.98 62.25-6 63.22-7.93 64.2-9.85 64.2-12.5L64.2-12.5Q64.2-15.2 63.22-17.1 62.25-19 60.57-20.03 58.9-21.05 56.95-21.05L56.95-21.05Q53.55-21.05 51.52-18.7 49.5-16.35 49.5-12.5ZM76.09 0L76.09-25 80.39-25 80.69-22.1Q81.89-23.65 83.74-24.5 85.59-25.35 87.84-25.35L87.84-25.35Q90.74-25.35 92.87-24.13 94.99-22.9 96.17-20.5 97.34-18.1 97.34-14.5L97.34-14.5 97.34 0 92.64 0 92.64-13.9Q92.64-17.4 91.17-19.23 89.69-21.05 86.89-21.05L86.89-21.05Q83.99-21.05 82.39-19.18 80.79-17.3 80.79-13.65L80.79-13.65 80.79 0 76.09 0ZM104.49-35L109.49-35 109.49-4.2 125.49-4.2 125.49 0 104.49 0 104.49-35ZM141.24 0.35L141.24 0.35Q137.64 0.35 134.86-1.33 132.09-3 130.51-5.95 128.94-8.9 128.94-12.7L128.94-12.7Q128.94-16.35 130.49-19.2 132.04-22.05 134.76-23.7 137.49-25.35 140.94-25.35L140.94-25.35Q144.44-25.35 147.14-23.83 149.84-22.3 151.34-19.58 152.84-16.85 152.79-13.3L152.79-13.3Q152.79-12.7 152.74-12.08 152.69-11.45 152.59-10.7L152.59-10.7 134.09-10.7Q134.24-8.7 135.21-7.18 136.19-5.65 137.71-4.8 139.24-3.95 141.19-3.95L141.19-3.95Q143.69-3.95 145.54-4.93 147.39-5.9 148.14-7.55L148.14-7.55 152.24-6.1Q150.74-3.05 147.86-1.35 144.99 0.35 141.24 0.35ZM134.14-14.75L147.64-14.75Q147.64-16.55 146.74-18 145.84-19.45 144.31-20.28 142.79-21.1 140.89-21.1L140.89-21.1Q139.19-21.1 137.76-20.28 136.34-19.45 135.36-18.03 134.39-16.6 134.14-14.75L134.14-14.75ZM158.53 0L158.53-25 162.84-25 163.13-22.1Q164.34-23.65 166.19-24.5 168.03-25.35 170.28-25.35L170.28-25.35Q173.19-25.35 175.31-24.13 177.44-22.9 178.61-20.5 179.78-18.1 179.78-14.5L179.78-14.5 179.78 0 175.09 0 175.09-13.9Q175.09-17.4 173.61-19.23 172.13-21.05 169.34-21.05L169.34-21.05Q166.44-21.05 164.84-19.18 163.24-17.3 163.24-13.65L163.24-13.65 163.24 0 158.53 0ZM185.13-6.4L189.38-7.9Q189.73-6.4 190.58-5.55 191.43-4.7 192.61-4.33 193.78-3.95 195.08-3.95L195.08-3.95Q197.33-3.95 198.58-4.85 199.83-5.75 199.83-7.1L199.83-7.1Q199.83-8.25 199.06-8.93 198.28-9.6 197.01-10 195.73-10.4 194.28-10.75L194.28-10.75Q192.98-11.1 191.46-11.55 189.93-12 188.61-12.78 187.28-13.55 186.43-14.78 185.58-16 185.58-17.9L185.58-17.9Q185.58-20.15 186.81-21.83 188.03-23.5 190.21-24.43 192.38-25.35 195.13-25.35L195.13-25.35Q198.33-25.35 200.76-23.98 203.18-22.6 204.28-19.85L204.28-19.85 200.03-18.45Q199.68-19.4 198.88-20 198.08-20.6 197.06-20.83 196.03-21.05 195.03-21.05L195.03-21.05Q193.13-21.05 191.88-20.3 190.63-19.55 190.63-18.1L190.63-18.1Q190.63-17.3 191.03-16.78 191.43-16.25 192.16-15.93 192.88-15.6 193.88-15.35 194.88-15.1 196.03-14.8L196.03-14.8Q197.53-14.35 199.08-13.83 200.63-13.3 201.93-12.5 203.23-11.7 204.03-10.4 204.83-9.1 204.88-7.2L204.88-7.2Q204.88-5 203.66-3.3 202.43-1.6 200.21-0.63 197.98 0.35 194.93 0.35L194.93 0.35Q191.23 0.35 188.63-1.3 186.03-2.95 185.13-6.4L185.13-6.4Z" fill="#adffb7" data-fill-palette-color="primary"></path></g></svg></g></svg></g></svg></g></svg></g><g><svg viewBox="0 0 135.2469189839983 123.35809801481481" height="123.35809801481481" width="135.2469189839983"><g><svg xmlns="http://www.w3.org/2000/svg" xmlns:xlink="http://www.w3.org/1999/xlink" version="1.1" x="0" y="0" viewBox="0 4.395000000000001 100.00049999999999 91.21000000000001" enable-background="new 0 0 100 100" xml:space="preserve" width="135.2469189839983" height="123.35809801481481" class="icon-icon-0" data-fill-palette-color="accent" id="icon-0"><g fill="#ffffff" data-fill-palette-color="accent"><path d="M99.819 49.231c-0.146-0.282-3.534-6.965-11.389-13.699-7.238-6.193-19.767-13.576-38.424-13.576-18.67 0-31.198 7.382-38.426 13.576C3.715 42.266 0.328 48.949 0.18 49.231c-0.24 0.483-0.24 1.047 0 1.529 0.148 0.283 3.535 6.973 11.4 13.711 7.228 6.19 19.756 13.573 38.426 13.573 18.658 0 31.186-7.383 38.424-13.573 7.854-6.738 11.242-13.429 11.389-13.711C100.061 50.278 100.061 49.714 99.819 49.231zM86.088 61.973c-9.863 8.396-22.004 12.664-36.082 12.664-14.088 0-26.23-4.269-36.094-12.664C8.025 56.96 4.762 51.88 3.663 49.996c1.099-1.884 4.372-6.955 10.25-11.965 9.863-8.407 22.005-12.667 36.094-12.667 14.078 0 26.218 4.26 36.082 12.667 5.888 5.01 9.151 10.081 10.248 11.965C95.239 51.888 91.964 56.96 86.088 61.973z" fill="#ffffff" data-fill-palette-color="accent"></path><path d="M50.006 30.73c-10.627 0-19.275 8.651-19.275 19.266 0 10.628 8.648 19.275 19.275 19.275 10.615 0 19.264-8.647 19.264-19.275C69.271 39.381 60.621 30.73 50.006 30.73zM50.006 65.852c-8.744 0-15.856-7.112-15.856-15.855 0-8.734 7.112-15.843 15.856-15.843 8.732 0 15.844 7.109 15.844 15.843C65.851 58.739 58.738 65.852 50.006 65.852z" fill="#ffffff" data-fill-palette-color="accent"></path><path d="M6.1 34.153c0.94 0 1.705-0.765 1.705-1.717V14.877c0-6.81 6.359-7.062 7.08-7.07h70.23c0.723 0.009 7.081 0.261 7.081 7.07v17.559c0 0.952 0.762 1.717 1.704 1.717 0.941 0 1.704-0.765 1.704-1.717V14.877c0-8.296-6.86-10.482-10.479-10.482H14.885c-3.627 0-10.49 2.186-10.49 10.482v17.559C4.395 33.388 5.159 34.153 6.1 34.153z" fill="#ffffff" data-fill-palette-color="accent"></path><path d="M93.9 65.852c-0.942 0-1.704 0.764-1.704 1.705v17.559c0 6.819-6.358 7.07-7.07 7.081H14.885c-0.721-0.011-7.08-0.262-7.08-7.081V67.557c0-0.941-0.765-1.705-1.705-1.705-0.941 0-1.706 0.764-1.706 1.705v17.559c0 8.304 6.863 10.489 10.49 10.489h70.241c3.618 0 10.479-2.186 10.479-10.489V67.557C95.604 66.615 94.842 65.852 93.9 65.852z" fill="#ffffff" data-fill-palette-color="accent"></path></g></svg></g></svg></g></svg></g><defs></defs></svg><rect width="395.52" height="88.41451515545211" fill="none" stroke="none" visibility="hidden"></rect></g></svg></g></svg>